<svg width="20" height="20" viewBox="0 0 20 20" fill="none" xmlns="http://www.w3.org/2000/svg">
<circle cx="10" cy="10" r="8.73077" stroke="black" stroke-opacity="0.87"/>
<path d="M13.0769 6.92307L6.92307 13.0769" stroke="black" stroke-opacity="0.87" stroke-linecap="round" stroke-linejoin="round"/>
<path d="M7.30769 8.46153C7.94494 8.46153 8.46153 7.94494 8.46153 7.30769C8.46153 6.67043 7.94494 6.15384 7.30769 6.15384C6.67043 6.15384 6.15384 6.67043 6.15384 7.30769C6.15384 7.94494 6.67043 8.46153 7.30769 8.46153Z" stroke="black" stroke-opacity="0.87" stroke-linecap="round" stroke-linejoin="round"/>
<path d="M12.6923 13.8461C13.3295 13.8461 13.8461 13.3295 13.8461 12.6923C13.8461 12.055 13.3295 11.5385 12.6923 11.5385C12.055 11.5385 11.5385 12.055 11.5385 12.6923C11.5385 13.3295 12.055 13.8461 12.6923 13.8461Z" stroke="black" stroke-opacity="0.87" stroke-linecap="round" stroke-linejoin="round"/>
</svg>
