<svg width="20" height="20" viewBox="0 0 20 20" fill="none" xmlns="http://www.w3.org/2000/svg">
<path fill-rule="evenodd" clip-rule="evenodd" d="M11.5646 8.18681C11.4277 7.02038 10.4359 6.11539 9.23269 6.11539C7.93588 6.11539 6.88461 7.16666 6.88461 8.46346V10.7673C6.88461 12.0641 7.93586 13.1154 9.23264 13.1154V14.6154H9.24043C9.23785 14.6154 9.23527 14.6154 9.23269 14.6154C7.10745 14.6154 5.38461 12.8925 5.38461 10.7673V8.46346C5.38461 6.33823 7.10745 4.61539 9.23269 4.61539C11.2649 4.61539 12.9292 6.19071 13.071 8.18681H11.5646Z" fill="black" fill-opacity="0.87"/>
<path d="M13.8461 10L10.7692 13.0769" stroke="black" stroke-opacity="0.87" stroke-linecap="round" stroke-linejoin="round"/>
<path d="M10.7692 10.7692C11.1941 10.7692 11.5385 10.4248 11.5385 10C11.5385 9.57517 11.1941 9.23077 10.7692 9.23077C10.3444 9.23077 10 9.57517 10 10C10 10.4248 10.3444 10.7692 10.7692 10.7692Z" stroke="black" stroke-opacity="0.87" stroke-linecap="round" stroke-linejoin="round"/>
<path d="M13.8462 13.8462C14.271 13.8462 14.6154 13.5018 14.6154 13.0769C14.6154 12.6521 14.271 12.3077 13.8462 12.3077C13.4213 12.3077 13.0769 12.6521 13.0769 13.0769C13.0769 13.5018 13.4213 13.8462 13.8462 13.8462Z" stroke="black" stroke-opacity="0.87" stroke-linecap="round" stroke-linejoin="round"/>
<circle cx="10" cy="10" r="8.73077" stroke="black" stroke-opacity="0.87"/>
</svg>
